<?xml version="1.0" encoding="utf-8"?>
<!-- Generator: Adobe Illustrator 28.0.0, SVG Export Plug-In . SVG Version: 6.00 Build 0)  -->
<svg version="1.1" id="ic-wp2" xmlns="http://www.w3.org/2000/svg" xmlns:xlink="http://www.w3.org/1999/xlink" x="0px" y="0px"
	 viewBox="0 0 52.5 52.5" style="enable-background:new 0 0 52.5 52.5;" xml:space="preserve">
<style type="text/css">
	.st0{fill:#4CCA5A;}
	.st1{fill:#FFFFFF;}
</style>
<g id="Grupo_10" transform="translate(10.399 10.447)">
	<g>
		<g>
			<path id="Trazado_98_00000153686068364799428530000015218727341210850960_" class="st0" d="M41.6,14.5
				C41.1,0.4,29.3-10.4,15.3-9.9C2.2-9.4-8.3,0.9-9.1,14c0,0.3,0,0.8,0,1.1c0,4.4,1.1,8.8,3.4,12.8c0,0.2,0,0.2,0,0.3l-4.4,13.1
				c0,0.2,0,0.3,0.2,0.3h0.2L4,37.2c0.2,0,0.2,0,0.3,0c3.8,2,7.9,2.9,11.9,2.9c13.9,0,25.4-11.3,25.4-25.2
				C41.6,15,41.6,14.5,41.6,14.5z"/>
		</g>
	</g>
</g>
<path id="Trazado_99" class="st1" d="M39.8,31.6c-0.3-0.3-0.8-0.7-1.3-0.8c-0.5-0.2-3.6-1.8-4.3-2c-0.5-0.2-1.1-0.3-1.6,0.3
	c-0.3,0.7-1.5,2-2,2.3c-0.3,0.3-0.5,0.3-1.1,0.2c-1.8-0.8-3.4-1.8-4.9-2.9c-1.3-1.1-2.5-2.6-3.4-4.1c-0.3-0.5-0.2-0.7,0.2-1
	c0.2-0.2,1.1-1.3,1.1-1.3c0.2-0.2,0.3-0.8,0.3-0.8c0.2-0.3,0.2-0.8,0-1.3c-0.2-0.2-1.8-4.1-2-4.4c-0.5-1.1-1-1.1-1.5-1.1
	c-0.2,0-2.5,0-3.1,0.8L16,15.7c-1.3,1.3-2.1,3.1-2.1,5.1c0,0.7,0.2,1.5,0.3,2.1c0.5,1.5,1.3,2.9,2.3,4.3c0,0,1.6,2.3,2.5,3.1
	c2.1,2.6,4.9,4.7,8.2,6.1c2,1,3.9,1.5,6.1,1.8c0.5,0,1-0.2,1.3-0.2c1.8-0.3,3.4-1.5,4.3-2.9C39.8,33.7,39.9,32.7,39.8,31.6z"/>
</svg>
