<svg width="148" height="148" viewBox="0 0 148 148" fill="none" xmlns="http://www.w3.org/2000/svg">
<g clip-path="url(#clip0_84_17)">
<path d="M9.25 -4.16143e-05L0 9.24996L20.35 37.7492C21.2067 38.9493 22.3379 39.9273 23.6493 40.6015C24.9607 41.2757 26.4142 41.6266 27.8888 41.625H28.5363C29.7524 41.624 30.9569 41.8629 32.0806 42.3279C33.2044 42.793 34.2254 43.4751 35.0853 44.3352L59.829 69.079L35.6217 93.6285C31.4814 92.4097 27.114 92.1725 22.866 92.9356C18.618 93.6988 14.6062 95.4414 11.149 98.0251C7.69179 100.609 4.88419 103.963 2.94893 107.82C1.01367 111.678 0.00399786 115.934 0 120.25C0.00554504 124.227 0.865834 128.156 2.52258 131.772C4.17933 135.387 6.59382 138.604 9.60248 141.205C12.6111 143.806 16.1437 145.729 19.9607 146.846C23.7778 147.962 27.7902 148.245 31.7261 147.675C35.662 147.105 39.4294 145.696 42.7732 143.543C46.1169 141.39 48.9588 138.543 51.1063 135.196C53.2538 131.849 54.6568 128.079 55.2201 124.142C55.7835 120.205 55.4941 116.193 54.3715 112.378L78.921 88.171L87.875 97.125L85.0537 105.579C84.5116 107.209 84.4339 108.957 84.8293 110.629C85.2246 112.3 86.0775 113.828 87.2923 115.042L117.54 145.29C118.397 146.152 119.416 146.836 120.538 147.302C121.66 147.769 122.864 148.01 124.079 148.01C125.295 148.01 126.499 147.769 127.621 147.302C128.743 146.836 129.762 146.152 130.619 145.29L145.29 130.619C146.152 129.762 146.836 128.743 147.303 127.621C147.769 126.499 148.01 125.295 148.01 124.079C148.01 122.864 147.769 121.66 147.303 120.538C146.836 119.416 146.152 118.397 145.29 117.54L115.042 87.2922C113.828 86.0774 112.3 85.2246 110.629 84.8292C108.957 84.4339 107.209 84.5116 105.579 85.0537L97.125 87.875L88.245 78.995L113.035 54.5472C117.147 55.645 121.457 55.7836 125.632 54.9525C129.806 54.1213 133.734 52.3426 137.112 49.7534C140.491 47.1642 143.229 43.8338 145.117 40.0188C147.005 36.2039 147.991 32.0064 148 27.75C148 25.2525 147.686 22.8567 147.057 20.5627L127.262 40.367L111 37L107.633 20.7477L127.437 0.943458C122.726 -0.323225 117.764 -0.325589 113.052 0.936604C108.34 2.1988 104.044 4.68094 100.596 8.13283C97.1492 11.5847 94.6729 15.8844 93.4171 20.5984C92.1613 25.3124 92.1704 30.2741 93.4435 34.9835L69.0235 59.755L44.3353 35.0852C42.6004 33.3509 41.6255 30.9985 41.625 28.5455V27.8887C41.6251 26.4157 41.2735 24.964 40.5994 23.6544C39.9253 22.3447 38.9481 21.215 37.7492 20.3592L9.25 -4.16143e-05ZM98.4755 98.4755C98.9051 98.0447 99.4155 97.703 99.9774 97.4699C100.539 97.2367 101.142 97.1167 101.75 97.1167C102.358 97.1167 102.961 97.2367 103.523 97.4699C104.085 97.703 104.595 98.0447 105.024 98.4755L131.979 125.439C132.821 126.311 133.288 127.48 133.277 128.692C133.267 129.905 132.78 131.065 131.923 131.923C131.065 132.78 129.905 133.267 128.692 133.277C127.48 133.288 126.312 132.821 125.439 131.979L98.4755 105.024C98.0448 104.595 97.7031 104.084 97.4699 103.523C97.2368 102.961 97.1167 102.358 97.1167 101.75C97.1167 101.142 97.2368 100.539 97.4699 99.9773C97.7031 99.4155 98.0448 98.9051 98.4755 98.4755ZM27.75 101.75L32.1068 103.988L37 104.229L39.6548 108.345L43.771 111L44.0115 115.893L46.25 120.25L44.0115 124.607L43.771 129.5L39.6548 132.155L37 136.271L32.1068 136.511L27.75 138.75L23.3932 136.511L18.5 136.271L15.8453 132.155L11.729 129.5L11.4885 124.607L9.25 120.25L11.4885 115.893L11.729 111L15.8453 108.345L18.5 104.229L23.3932 103.988L27.75 101.75Z" fill="black"/>
</g>
<defs>
<clipPath id="clip0_84_17">
<rect width="148" height="148" fill="white"/>
</clipPath>
</defs>
</svg>
