<svg width="155" height="155" viewBox="0 0 155 155" fill="none" xmlns="http://www.w3.org/2000/svg">
<g clip-path="url(#clip0_112_2)">
<path d="M77.5001 46.0542C73.3706 46.0542 69.2815 46.8676 65.4664 48.4479C61.6512 50.0281 58.1847 52.3444 55.2647 55.2644C52.3447 58.1844 50.0284 61.6509 48.4481 65.4661C46.8678 69.2813 46.0544 73.3703 46.0544 77.4998C46.0544 81.6293 46.8678 85.7184 48.4481 89.5335C50.0284 93.3487 52.3447 96.8152 55.2647 99.7352C58.1847 102.655 61.6512 104.972 65.4664 106.552C69.2815 108.132 73.3706 108.945 77.5001 108.945C85.84 108.945 93.8383 105.632 99.7355 99.7352C105.633 93.838 108.946 85.8397 108.946 77.4998C108.946 69.1599 105.633 61.1616 99.7355 55.2644C93.8383 49.3672 85.84 46.0542 77.5001 46.0542ZM55.7419 77.4998C55.7419 71.7292 58.0343 66.1949 62.1148 62.1145C66.1952 58.0341 71.7295 55.7417 77.5001 55.7417C83.2707 55.7417 88.8049 58.0341 92.8854 62.1145C96.9658 66.1949 99.2582 71.7292 99.2582 77.4998C99.2582 83.2704 96.9658 88.8047 92.8854 92.8851C88.8049 96.9656 83.2707 99.258 77.5001 99.258C71.7295 99.258 66.1952 96.9656 62.1148 92.8851C58.0343 88.8047 55.7419 83.2704 55.7419 77.4998Z" fill="black"/>
<path d="M94.899 13.0104C89.7937 -4.33027 65.2068 -4.33027 60.1015 13.0104L59.1909 16.1007C58.8344 17.3111 58.2115 18.4265 57.3679 19.3649C56.5243 20.3034 55.4814 21.0412 54.3156 21.5242C53.1498 22.0073 51.8907 22.2233 50.6306 22.1565C49.3705 22.0897 48.1413 21.7417 47.0331 21.1382L44.2043 19.5882C28.3168 10.9469 10.9472 28.3263 19.5981 44.2041L21.1384 47.0328C21.742 48.141 22.0899 49.3702 22.1567 50.6303C22.2235 51.8905 22.0075 53.1496 21.5245 54.3153C21.0414 55.4811 20.3037 56.524 19.3652 57.3676C18.4267 58.2112 17.3114 58.8341 16.1009 59.1907L13.0106 60.1013C-4.33003 65.2066 -4.33003 89.7935 13.0106 94.8988L16.1009 95.8094C17.3114 96.166 18.4267 96.7888 19.3652 97.6324C20.3037 98.476 21.0414 99.5189 21.5245 100.685C22.0075 101.851 22.2235 103.11 22.1567 104.37C22.0899 105.63 21.742 106.859 21.1384 107.967L19.5884 110.796C10.9472 126.683 28.3168 144.063 44.2043 135.402L47.0331 133.862C48.1413 133.258 49.3705 132.91 50.6306 132.844C51.8907 132.777 53.1498 132.993 54.3156 133.476C55.4814 133.959 56.5243 134.697 57.3679 135.635C58.2115 136.574 58.8344 137.689 59.1909 138.899L60.1015 141.99C65.2068 159.33 89.7937 159.33 94.899 141.99L95.8097 138.899C96.1662 137.689 96.7891 136.574 97.6327 135.635C98.4763 134.697 99.5192 133.959 100.685 133.476C101.851 132.993 103.11 132.777 104.37 132.844C105.63 132.91 106.859 133.258 107.967 133.862L110.796 135.412C126.684 144.063 144.063 126.674 135.402 110.796L133.862 107.967C133.259 106.859 132.911 105.63 132.844 104.37C132.777 103.11 132.993 101.851 133.476 100.685C133.959 99.5189 134.697 98.476 135.635 97.6324C136.574 96.7888 137.689 96.166 138.9 95.8094L141.99 94.8988C159.331 89.7935 159.331 65.2066 141.99 60.1013L138.9 59.1907C137.689 58.8341 136.574 58.2112 135.635 57.3676C134.697 56.524 133.959 55.4811 133.476 54.3153C132.993 53.1496 132.777 51.8905 132.844 50.6303C132.911 49.3702 133.259 48.141 133.862 47.0328L135.412 44.2041C144.063 28.3166 126.674 10.9469 110.796 19.5979L107.967 21.1382C106.859 21.7417 105.63 22.0897 104.37 22.1565C103.11 22.2233 101.851 22.0073 100.685 21.5242C99.5192 21.0412 98.4763 20.3034 97.6327 19.3649C96.7891 18.4265 96.1662 17.3111 95.8097 16.1007L94.899 13.0104ZM69.3918 15.7519C71.775 7.66285 83.2256 7.66285 85.6087 15.7519L86.5193 18.8422C87.2849 21.4393 88.6219 23.8321 90.4324 25.8453C92.2429 27.8585 94.481 29.441 96.9826 30.4767C99.4842 31.5125 102.186 31.9753 104.89 31.8311C107.593 31.687 110.23 30.9396 112.608 29.6438L115.427 28.0938C122.828 24.0735 130.927 32.1625 126.897 39.5735L125.357 42.4022C124.063 44.7798 123.317 47.4167 123.175 50.1198C123.032 52.8229 123.496 55.5236 124.533 58.0241C125.569 60.5246 127.152 62.7615 129.165 64.5709C131.179 66.3802 133.571 67.7162 136.168 68.481L139.248 69.3916C147.337 71.7747 147.337 83.2254 139.248 85.6085L136.158 86.5191C133.561 87.2846 131.168 88.6216 129.155 90.4321C127.142 92.2426 125.559 94.4807 124.524 96.9823C123.488 99.4839 123.025 102.186 123.169 104.889C123.313 107.593 124.061 110.23 125.357 112.608L126.907 115.427C130.927 122.828 122.838 130.927 115.427 126.897L112.608 125.356C110.23 124.061 107.592 123.314 104.888 123.17C102.184 123.027 99.4815 123.49 96.9797 124.527C94.478 125.564 92.24 127.147 90.43 129.161C88.62 131.176 87.2837 133.57 86.5193 136.168L85.6087 139.248C83.2256 147.337 71.775 147.337 69.3918 139.248L68.4812 136.158C67.7154 133.562 66.3786 131.171 64.5687 129.158C62.7589 127.146 60.5219 125.564 58.0215 124.529C55.5212 123.493 52.8208 123.03 50.1183 123.173C47.4157 123.316 44.7794 124.062 42.4025 125.356L39.5737 126.906C32.1725 130.927 24.0737 122.838 28.1037 115.427L29.644 112.608C30.9417 110.23 31.6905 107.592 31.8356 104.887C31.9807 102.182 31.5183 99.479 30.4824 96.9762C29.4465 94.4733 27.8634 92.2342 25.8492 90.423C23.835 88.6118 21.4409 87.2746 18.8425 86.5094L15.7522 85.5988C7.6631 83.2157 7.6631 71.765 15.7522 69.3819L18.8425 68.4713C21.4368 67.7051 23.8271 66.3685 25.8382 64.5594C27.8494 62.7502 29.4306 60.5142 30.4661 58.0151C31.5015 55.516 31.9651 52.817 31.8229 50.1156C31.6807 47.4142 30.9362 44.7788 29.644 42.4022L28.094 39.5735C24.0737 32.1722 32.1628 24.0735 39.5737 28.1035L42.4025 29.6438C44.7794 30.9378 47.4157 31.6837 50.1183 31.8269C52.8208 31.9701 55.5212 31.5069 58.0215 30.4713C60.5219 29.4356 62.7589 27.8538 64.5687 25.8416C66.3786 23.8295 67.7154 21.4379 68.4812 18.8422L69.3918 15.7519Z" fill="black"/>
</g>
<defs>
<clipPath id="clip0_112_2">
<rect width="155" height="155" fill="white"/>
</clipPath>
</defs>
</svg>
