<svg width="155" height="155" viewBox="0 0 155 155" fill="none" xmlns="http://www.w3.org/2000/svg">
<path d="M106.562 48.4375C106.562 56.1454 103.501 63.5375 98.0503 68.9878C92.6 74.4381 85.2079 77.5 77.5 77.5C69.7921 77.5 62.4 74.4381 56.9497 68.9878C51.4994 63.5375 48.4375 56.1454 48.4375 48.4375C48.4375 40.7296 51.4994 33.3375 56.9497 27.8872C62.4 22.4369 69.7921 19.375 77.5 19.375C85.2079 19.375 92.6 22.4369 98.0503 27.8872C103.501 33.3375 106.562 40.7296 106.562 48.4375ZM77.5 67.8125C82.6386 67.8125 87.5667 65.7712 91.2002 62.1377C94.8337 58.5042 96.875 53.5761 96.875 48.4375C96.875 43.2989 94.8337 38.3708 91.2002 34.7373C87.5667 31.1038 82.6386 29.0625 77.5 29.0625C72.3614 29.0625 67.4333 31.1038 63.7998 34.7373C60.1663 38.3708 58.125 43.2989 58.125 48.4375C58.125 53.5761 60.1663 58.5042 63.7998 62.1377C67.4333 65.7712 72.3614 67.8125 77.5 67.8125ZM79.98 135.625C78.8708 132.478 78.1264 129.215 77.7616 125.899H29.0625C29.0722 123.516 30.5544 116.347 37.1225 109.779C43.4388 103.462 55.3253 96.875 77.5 96.875C80.0187 96.875 82.4083 96.9557 84.6687 97.1172C86.8581 93.8137 89.4737 90.8203 92.4575 88.2241C87.9367 87.5459 82.9508 87.2004 77.5 87.1875C29.0625 87.1875 19.375 116.25 19.375 125.938C19.375 135.625 29.0625 135.625 29.0625 135.625H79.98ZM115.146 91.6438C116.889 85.7053 125.298 85.7053 127.052 91.6438L127.468 93.0775C127.728 93.9669 128.185 94.7866 128.803 95.4764C129.422 96.1662 130.187 96.7086 131.043 97.0636C131.899 97.4186 132.824 97.5772 133.749 97.5278C134.675 97.4784 135.577 97.2223 136.39 96.7781L137.708 96.0613C143.143 93.0969 149.091 99.045 146.136 104.48L145.409 105.797C144.967 106.61 144.712 107.512 144.664 108.436C144.615 109.36 144.774 110.283 145.129 111.138C145.484 111.993 146.026 112.757 146.715 113.375C147.404 113.993 148.222 114.449 149.11 114.71L150.553 115.146C156.482 116.889 156.482 125.298 150.553 127.052L149.1 127.468C148.213 127.731 147.395 128.188 146.707 128.808C146.02 129.428 145.48 130.193 145.127 131.049C144.773 131.905 144.617 132.829 144.667 133.753C144.718 134.677 144.975 135.578 145.419 136.39L146.136 137.708C149.091 143.143 143.143 149.091 137.708 146.136L136.39 145.409C135.577 144.967 134.676 144.712 133.752 144.664C132.827 144.615 131.904 144.774 131.05 145.129C130.195 145.484 129.43 146.026 128.812 146.715C128.194 147.404 127.738 148.222 127.478 149.11L127.042 150.553C125.298 156.482 116.889 156.482 115.136 150.553L114.719 149.1C114.457 148.213 113.999 147.395 113.38 146.707C112.76 146.02 111.994 145.48 111.138 145.127C110.283 144.773 109.359 144.617 108.435 144.667C107.51 144.718 106.609 144.975 105.797 145.419L104.48 146.136C99.045 149.091 93.0969 143.143 96.0516 137.708L96.7781 136.39C97.2204 135.577 97.4752 134.676 97.5236 133.752C97.5721 132.827 97.413 131.904 97.0581 131.05C96.7032 130.195 96.1615 129.43 95.4727 128.812C94.7839 128.194 93.9655 127.738 93.0775 127.478L91.6438 127.042C85.7053 125.298 85.7053 116.889 91.6438 115.136L93.0775 114.719C93.9669 114.459 94.7866 114.003 95.4764 113.384C96.1662 112.766 96.7086 112 97.0636 111.144C97.4186 110.288 97.5772 109.364 97.5278 108.438C97.4784 107.513 97.2223 106.61 96.7781 105.797L96.0613 104.48C93.0969 99.045 99.045 93.0969 104.48 96.0516L105.797 96.7781C106.61 97.2204 107.512 97.4752 108.436 97.5236C109.36 97.5721 110.283 97.413 111.138 97.0581C111.993 96.7032 112.757 96.1615 113.375 95.4727C113.993 94.7839 114.449 93.9655 114.71 93.0775L115.146 91.6438ZM135.625 121.094C135.625 119.185 135.249 117.296 134.519 115.533C133.789 113.77 132.718 112.168 131.369 110.819C130.02 109.469 128.418 108.399 126.655 107.669C124.892 106.938 123.002 106.562 121.094 106.562C119.185 106.562 117.296 106.938 115.533 107.669C113.77 108.399 112.168 109.469 110.819 110.819C109.469 112.168 108.399 113.77 107.669 115.533C106.938 117.296 106.562 119.185 106.562 121.094C106.563 124.948 108.093 128.644 110.819 131.369C113.544 134.094 117.24 135.625 121.094 135.625C124.948 135.625 128.644 134.094 131.369 131.369C134.094 128.644 135.625 124.948 135.625 121.094Z" fill="black"/>
</svg>
