<svg width="155" height="155" viewBox="0 0 155 155" fill="none" xmlns="http://www.w3.org/2000/svg">
<g clip-path="url(#clip0_121_2)">
<path d="M77.5 48.4375C79.4083 48.4375 81.2979 48.0616 83.0609 47.3314C84.8239 46.6011 86.4258 45.5307 87.7751 44.1814C89.1245 42.832 90.1949 41.2301 90.9251 39.4671C91.6554 37.7041 92.0312 35.8145 92.0312 33.9062C92.0312 31.998 91.6554 30.1084 90.9251 28.3454C90.1949 26.5824 89.1245 24.9805 87.7751 23.6311C86.4258 22.2818 84.8239 21.2114 83.0609 20.4811C81.2979 19.7509 79.4083 19.375 77.5 19.375C73.6461 19.375 69.95 20.906 67.2249 23.6311C64.4997 26.3562 62.9688 30.0523 62.9688 33.9062C62.9688 37.7602 64.4997 41.4563 67.2249 44.1814C69.95 46.9065 73.6461 48.4375 77.5 48.4375ZM116.25 77.5C120.104 77.5 123.8 75.969 126.525 73.2439C129.25 70.5188 130.781 66.8227 130.781 62.9688C130.781 59.1148 129.25 55.4187 126.525 52.6936C123.8 49.9685 120.104 48.4375 116.25 48.4375C112.396 48.4375 108.7 49.9685 105.975 52.6936C103.25 55.4187 101.719 59.1148 101.719 62.9688C101.719 66.8227 103.25 70.5188 105.975 73.2439C108.7 75.969 112.396 77.5 116.25 77.5ZM53.2812 67.8125C53.2812 71.6664 51.7503 75.3625 49.0251 78.0876C46.3 80.8128 42.6039 82.3438 38.75 82.3438C34.8961 82.3438 31.2 80.8128 28.4749 78.0876C25.7497 75.3625 24.2188 71.6664 24.2188 67.8125C24.2188 63.9586 25.7497 60.2625 28.4749 57.5374C31.2 54.8122 34.8961 53.2812 38.75 53.2812C42.6039 53.2812 46.3 54.8122 49.0251 57.5374C51.7503 60.2625 53.2812 63.9586 53.2812 67.8125ZM58.125 125.938C61.9789 125.937 65.675 124.407 68.4001 121.681C71.1253 118.956 72.6562 115.26 72.6562 111.406C72.6562 107.552 71.1253 103.856 68.4001 101.131C65.675 98.406 61.9789 96.875 58.125 96.875C54.2711 96.875 50.575 98.406 47.8499 101.131C45.1247 103.856 43.5938 107.552 43.5938 111.406C43.5938 115.26 45.1247 118.956 47.8499 121.681C50.575 124.407 54.2711 125.938 58.125 125.938Z" fill="black"/>
<path d="M155 77.5C155 108.016 136.923 102.542 120.445 97.5532C110.631 94.5791 101.38 91.7697 96.875 96.875C91.0335 103.492 92.2735 114.497 93.4747 125.163C95.1894 140.42 96.8363 155 77.5 155C62.172 155 47.1882 150.455 34.4433 141.939C21.6985 133.423 11.7652 121.319 5.89937 107.158C0.0335793 92.9967 -1.50118 77.4141 1.48918 62.3805C4.47953 47.347 11.8607 33.5378 22.6993 22.6993C33.5378 11.8607 47.347 4.47953 62.3805 1.48918C77.4141 -1.50118 92.9967 0.0335793 107.158 5.89937C121.319 11.7652 133.423 21.6985 141.939 34.4433C150.455 47.1882 155 62.172 155 77.5ZM77.5 145.313C83.4191 145.313 83.8357 143.656 83.8453 143.608C84.601 142.193 85.0466 139.113 84.5235 132.767C84.3879 131.14 84.165 129.183 83.9325 127.042C83.4288 122.547 82.8475 117.306 82.7894 112.879C82.6925 106.03 83.5935 97.2819 89.6094 90.4619C93.1841 86.4222 97.7954 84.8625 101.932 84.475C105.846 84.1069 109.798 84.7269 113.169 85.4825C116.492 86.2285 119.97 87.2844 123.099 88.2338L123.37 88.3113C126.722 89.3285 129.745 90.2391 132.603 90.8882C138.928 92.3219 141.36 91.6922 142.203 91.1207C142.571 90.8688 145.313 88.7472 145.313 77.5C145.313 64.088 141.335 50.9771 133.884 39.8254C126.433 28.6737 115.842 19.982 103.451 14.8495C91.0596 9.71689 77.4248 8.37397 64.2705 10.9905C51.1161 13.6071 39.0331 20.0656 29.5494 29.5494C20.0656 39.0331 13.6071 51.1161 10.9905 64.2705C8.37397 77.4248 9.71689 91.0596 14.8495 103.451C19.982 115.842 28.6737 126.433 39.8254 133.884C50.9771 141.335 64.088 145.313 77.5 145.313Z" fill="black"/>
</g>
<defs>
<clipPath id="clip0_121_2">
<rect width="155" height="155" fill="white"/>
</clipPath>
</defs>
</svg>
